# xmcd
#
# Track frame offsets: 
#        150
#        19200
#        33462
#        45525
#        57500
#        87875
#        105975
#        119125
#        134350
#        145750
#        162537
#        180237
#        197925
#
# Disc length: 2825 seconds
#
# Revision: 2
# Processed by: cddbd v1.5.2PL0 Copyright (c) Steve Scherf et al.
# Submitted via: ExactAudioCopyFreeDBPlugin 1.0
#
DISCID=b60b070d
DTITLE=Taj Mahal - The Best Of The Private Years
DYEAR=2000
DGENRE=Blues
TTITLE0=Blues Ain't Nothin'
TTITLE1=Here In The Dark
TTITLE2=Mind Your Own Business
TTITLE3=Lovin' In My Baby's Eyes
TTITLE4=Senor Blues
TTITLE5=Ooh Poo Pah Doo
TTITLE6=The Hoochi Coochi Coo
TTITLE7=Mr. Pitiful
TTITLE8=Need Your Lovin'
TTITLE9=I'm Ready
TTITLE10=Sophisticated Mama
TTITLE11=Mockingbird
TTITLE12=That's How Strong My Love Is
EXTD=
EXTT0=
EXTT1=
EXTT2=
EXTT3=
EXTT4=
EXTT5=
EXTT6=
EXTT7=
EXTT8=
EXTT9=
EXTT10=
EXTT11=
EXTT12=
PLAYORDER=
